<?xml version="1.0" standalone="no"?>
<!DOCTYPE svg PUBLIC "-//W3C//DTD SVG 20010904//EN"
 "http://www.w3.org/TR/2001/REC-SVG-20010904/DTD/svg10.dtd">
<svg version="1.0" xmlns="http://www.w3.org/2000/svg"
 width="1024.000000pt" height="1024.000000pt" viewBox="0 0 1024.000000 1024.000000"
 preserveAspectRatio="xMidYMid meet">
<metadata>
Created by potrace 1.11, written by Peter Selinger 2001-2013
</metadata>
<g transform="translate(0.000000,1024.000000) scale(0.100000,-0.100000)"
fill="#000000" stroke="none">
<path d="M2960 10226 c-155 -33 -314 -161 -384 -309 -61 -129 -59 -102 -59
-1042 0 -473 3 -881 7 -906 8 -61 40 -152 71 -205 79 -134 237 -246 385 -272
45 -8 186 -8 225 0 107 21 236 97 310 181 53 59 118 188 134 262 11 52 11
1825 0 1855 -3 8 -10 29 -14 45 -49 179 -225 345 -413 389 -73 17 -187 18
-262 2z"/>
<path d="M7006 10224 c-146 -35 -299 -155 -368 -289 -70 -136 -68 -93 -67
-1070 0 -974 -2 -938 65 -1074 72 -145 238 -271 394 -300 53 -9 193 -8 235 2
47 12 116 39 161 64 74 40 185 157 222 233 66 137 64 102 64 1070 0 481 -3
890 -6 909 -38 201 -189 374 -386 441 -81 28 -228 35 -314 14z"/>
<path d="M1310 9153 c-352 -54 -646 -304 -750 -639 -11 -38 -24 -87 -28 -109
-4 -22 -7 -1752 -7 -3845 l0 -3805 28 -89 c101 -324 339 -555 657 -639 l85
-22 3810 0 c2096 0 3828 3 3850 7 78 13 181 50 263 94 227 119 379 306 459
561 l28 88 0 3815 0 3815 -22 85 c-79 299 -305 543 -594 640 -132 45 -188 49
-653 47 l-439 -2 -2 -705 c-2 -762 -1 -746 -57 -867 -94 -206 -296 -355 -512
-380 -120 -13 -546 -6 -623 10 -241 52 -435 241 -499 487 -15 58 -17 140 -18
760 l-1 695 -1170 0 -1170 0 -1 -690 c-1 -379 -4 -704 -7 -721 -35 -169 -123
-314 -251 -411 -90 -68 -166 -100 -306 -130 -37 -8 -505 -7 -576 1 -225 24
-439 192 -525 408 -45 114 -46 141 -47 850 -1 370 -1 679 -1 686 -1 10 -90 12
-448 11 -247 -2 -459 -4 -473 -6z m7771 -2455 c4 -352 -1 -5655 -6 -5686 -26
-176 -170 -332 -345 -373 -44 -10 -745 -12 -3610 -12 -1955 0 -3574 3 -3598 6
-66 10 -171 65 -229 120 -62 59 -99 118 -124 201 -18 59 -19 168 -19 2924 l0
2862 3965 0 3965 0 1 -42z"/>
<path d="M4933 6503 c-5 -2 -8 -109 -7 -238 l1 -235 -36 -1 c-20 0 -45 -2 -56
-4 -11 -2 -42 -7 -70 -10 -158 -20 -379 -83 -523 -151 -399 -187 -657 -517
-729 -932 -9 -55 -10 -329 -1 -397 51 -392 292 -688 701 -861 140 -60 474
-167 584 -188 12 -3 46 -12 76 -22 l54 -17 0 -639 0 -640 -36 7 c-107 20 -218
72 -331 156 -188 139 -286 341 -289 594 l-1 50 -432 0 -433 0 1 -25 c7 -187
87 -501 174 -688 213 -454 657 -738 1245 -797 114 -11 102 17 103 -242 0 -126
1 -242 1 -259 l1 -30 180 0 180 0 0 258 0 258 23 4 c12 3 53 8 90 11 37 4 78
8 90 11 12 2 39 6 62 10 217 31 422 105 610 219 295 178 493 405 590 673 50
139 68 239 69 377 0 306 -29 467 -120 646 -54 109 -110 184 -204 278 -248 248
-550 394 -1065 516 -60 14 -118 28 -128 31 -16 5 -17 38 -15 547 l3 542 30 -2
c163 -10 320 -125 402 -294 41 -84 57 -139 69 -234 3 -27 8 -52 10 -54 6 -6
842 -7 857 -1 11 4 11 25 0 110 -72 582 -429 971 -1038 1130 -60 16 -130 32
-155 36 -25 4 -47 8 -50 9 -3 1 -33 5 -67 9 l-63 8 0 237 0 236 -175 0 c-96 0
-178 -1 -182 -2z m-6 -1688 l0 -494 -31 4 c-48 6 -212 63 -275 95 -193 97
-271 252 -240 479 28 206 219 381 444 407 27 4 51 7 53 9 1 1 13 0 26 -2 l23
-5 0 -493z m523 -1522 c156 -50 317 -133 379 -194 55 -54 93 -124 111 -204 13
-54 15 -178 5 -235 -27 -158 -153 -313 -326 -401 -66 -33 -209 -76 -281 -85
l-48 -6 0 586 0 586 28 -6 c15 -4 74 -22 132 -41z"/>
</g>
</svg>
